<?xml version="1.0" encoding="UTF-8"?>
<!DOCTYPE svg PUBLIC "-//W3C//DTD SVG 1.1//EN" "http://www.w3.org/Graphics/SVG/1.1/DTD/svg11.dtd">
<!-- Creator: CorelDRAW 2018 (64-Bit Evaluation Version) -->
<svg xmlns="http://www.w3.org/2000/svg" xml:space="preserve" width="6.69291in" height="6.69291in" version="1.1" style="shape-rendering:geometricPrecision; text-rendering:geometricPrecision; image-rendering:optimizeQuality; fill-rule:evenodd; clip-rule:evenodd"
viewBox="0 0 6692.91 6692.91"
 xmlns:xlink="http://www.w3.org/1999/xlink">
 <defs>
  <style type="text/css">
   <![CDATA[
    .fil0 {fill:#333333}
    .fil1 {fill:#333333;fill-rule:nonzero}
   ]]>
  </style>
 </defs>
 <g id="Layer_x0020_1">
  <metadata id="CorelCorpID_0Corel-Layer"/>
  <path class="fil0" d="M2688.75 2153.15l615.81 4.62c0,0 6.94,173.65 94.9,294.04 87.96,120.39 335.7,356.54 335.7,356.54 83.04,-76.59 173.5,-145.97 249.13,-229.76 59.68,-66.1 169.37,-217.96 176.82,-312 4.6,-57.8 4.65,-108.83 4.65,-108.83l590.33 0c0,0 23.17,231.53 -60.18,395.91 -83.34,164.39 -90.3,212.98 -187.54,324.13 -97.24,111.14 -361.13,335.7 -361.13,335.7l294.64 313.41 41.86 0.2c0,0 165.91,-269.61 399.69,-429.37 105.41,-72.02 224.82,-136.25 344.45,-164.24 145.7,-34.1 282.91,-23.49 282.91,-20.98l0 588.09c0,0 -136.61,-4.6 -215.3,50.94 -32.93,23.26 -109.26,76.73 -184.08,152.55 -103.85,105.2 -207.15,236.4 -207.15,236.4l0 46.31c0,0 215.3,236.13 328.75,312.54 113.44,76.41 185.2,113.43 240.75,118.07 55.56,4.65 83.34,2.31 83.34,2.31l-2.31 615.86 -131.96 2.31c0,0 -196.78,-4.65 -439.88,-175.97 -243.09,-171.32 -435.2,-386.62 -435.2,-386.62 0,0 -263.92,300.98 -430.6,407.48 -71.04,45.39 -201.68,115.02 -317.63,140.52 -150.65,33.11 -284.28,12.28 -284.28,12.28l-3.58 -605.04c0,0 37.28,3.7 88.02,-0.43 45.54,-3.68 100.64,-12.4 172.52,-58.98 151.97,-98.49 340.33,-321.84 340.33,-321.84l-467.64 -479.24 -265.98 231.28c0,0 -59.23,59.81 -91.62,129.26 -32.39,69.45 -47.23,137.14 -47.23,137.14l-0.59 131.3 -588.3 -0.55c0,0 -0.52,-43.55 0.5,-112.21 1.56,-105.99 25.45,-242.79 95.27,-393.23 116.57,-251.19 474.28,-535.12 474.28,-535.12 0,0 -218.39,-193.27 -363.47,-416.75 -58.66,-90.36 -123.04,-236.62 -146.52,-361.91 -22.77,-121.3 -22.47,-225.01 -22.47,-226.15zm2597.98 -301.34c-202.74,-335.72 -471.46,-603.21 -781.91,-769.98 -277.29,-148.96 -564.84,-244.27 -1006.49,-245.91 -936.61,-3.48 -1876.02,856.24 -1853.99,1805.32 22.03,949.08 678.19,1648.1 1564.64,1783.6 0.1,2.93 5.46,625.23 -1.06,624.58 -1136,-113.2 -2042.05,-1073.27 -2042.05,-2239.18 0,-1242.09 1006.83,-2249.01 2248.82,-2249.01 884.44,0 1649.5,510.71 2016.76,1253.26l-144.73 37.31zm-1691.65 -897.97c74.4,0 147.76,4.25 219.85,12.43l-2.61 65.79c-47.64,-3.85 -75.91,-5.85 -144.53,-5.85 -68.62,0 -167.11,2.33 -251.83,14.84l-7.76 -78.26c61.41,-5.92 123.75,-8.96 186.87,-8.96zm406.05 42.9c127.9,27.46 250.69,67.63 366.78,118.95l-21.41 45.77c-113.18,-47.39 -232.96,-83.33 -357.69,-106.19l12.32 -58.53zm523.34 199.15c112.27,59.45 224.93,141.15 320.79,220.8l-31.72 35.48c-95.3,-78.9 -195.74,-157.06 -308.47,-214.13l19.4 -42.16zm443.2 344.48c122.77,117.89 171.62,187.97 253.98,335.08l-46.48 16.2c-76.83,-140.67 -124.15,-208.89 -240.87,-320.94l33.37 -30.34zm-1718.57 -464.18c-125.06,30.52 -240.15,68.13 -351.7,123.64l-46.1 -95.93c121.15,-51.56 241.2,-90.89 375.09,-116.33l22.71 88.63zm-516.37 221.15c-101.21,65.2 -194.24,140.68 -277.34,224.89l-98.52 -105.79c94.6,-84.28 199.06,-158.97 311.59,-222.45l64.28 103.35zm-415.14 384.52c-75.69,100.7 -138.82,210.27 -187.3,326.75l-167.64 -76.12c61.24,-124.8 138.35,-241.31 228.87,-347.33l126.07 96.7zm-261.55 557.47c-25.46,109.46 -38.65,223.24 -37.94,340.07 0.06,9.05 0.2,18.08 0.42,27.09l-218.64 -17.52c4.01,-140.38 26.37,-276.43 64.84,-406.14l191.32 56.5zm-16.78 580.17c23.94,139.3 67.63,272.47 128.28,396.93l-215.91 100.46c-70.06,-149.2 -117.86,-309.57 -139.45,-477.43l227.09 -19.96zm231.88 577.2c72.71,108.76 159.3,208.58 257.44,297.26 -30.01,57.48 -52.54,127.73 -63.28,205.05 -2.21,15.91 -3.85,31.69 -4.95,47.25 -152.41,-117.88 -284,-258.57 -388.78,-416.41l199.57 -133.15z"/>
  <path class="fil1" d="M373.99 5542.88c28.88,0 57.29,4.89 85.06,14.83 27.78,9.79 52.87,24.3 75.28,43.4 22.57,19.1 40.4,42.14 53.66,68.96 13.26,26.83 19.88,57.44 19.88,92 0,41.82 -10.57,79.06 -31.88,111.41 -21.3,32.35 -49.55,57.76 -84.58,76.22 -35.19,18.62 -73.38,27.78 -114.73,27.78 -27.62,0 -52.71,-2.68 -74.8,-8.36 -22.25,-5.52 -40.71,-12 -55.55,-19.41l0 212.73 -128.46 0 0 -619.56 256.12 0zm-127.67 120.25l0 183.06c13.57,5.52 30.14,10.26 49.55,14.36 19.41,3.94 39.3,6 59.65,6 36.93,0 66.28,-10.26 88.21,-30.93 21.94,-20.67 32.83,-45.13 32.83,-73.54 0,-32.67 -12.31,-57.29 -36.93,-74.01 -24.62,-16.57 -53.65,-24.94 -86.95,-24.94l-106.36 0zm764.59 163.65c-19.72,-11.05 -40.4,-16.57 -61.86,-16.57 -27.14,0 -49.71,8.68 -67.54,26.35 -17.83,17.52 -33.61,39.3 -47.19,65.18l0 260.7 -117.41 0 0 -466.96 117.41 0 0 87.9c16.1,-27.78 35.04,-50.97 56.97,-69.44 21.78,-18.46 46.55,-27.78 74.33,-27.78 16.73,0 31.72,2.84 45.29,8.37l0 132.24zm308.04 -143.29c45.61,0 87.27,10.89 124.83,32.82 37.56,21.78 68.02,51.45 91.06,88.69 23.2,37.4 34.72,79.06 34.72,125.3 0,46.24 -11.52,87.9 -34.72,124.83 -23.04,37.09 -53.5,66.44 -91.06,88.37 -37.56,21.94 -79.22,32.82 -124.83,32.82 -44.97,0 -86.48,-10.89 -124.35,-32.82 -37.88,-21.94 -68.33,-51.29 -91.06,-88.37 -22.88,-36.93 -34.24,-78.59 -34.24,-124.83 0,-46.24 11.36,-87.9 34.24,-125.3 22.72,-37.24 53.18,-66.91 91.06,-88.69 37.87,-21.93 79.38,-32.82 124.35,-32.82zm0 113.62c-22.25,0 -42.76,5.37 -62.02,15.78 -19.1,10.57 -34.25,25.56 -45.77,45.29 -11.36,19.72 -17.04,43.87 -17.04,72.12 0,28.41 5.68,52.39 17.04,72.12 11.52,19.73 26.67,34.72 45.77,44.82 19.25,10.26 39.77,15.31 62.02,15.31 22.25,0 42.93,-5.05 62.02,-15.31 19.09,-10.1 34.41,-25.09 46.24,-44.82 11.68,-19.72 17.52,-43.71 17.52,-72.12 0,-28.25 -5.84,-52.39 -17.52,-72.12 -11.83,-19.73 -27.15,-34.72 -46.24,-45.29 -19.09,-10.42 -39.77,-15.78 -62.02,-15.78zm454.02 -344.81c21.62,0 40.56,7.89 56.81,23.51 16.41,15.78 24.62,34.4 24.62,56.02 0,20.99 -8.2,39.45 -24.62,55.39 -16.25,16.1 -35.19,24.15 -56.81,24.15 -22.88,0 -42.13,-8.05 -57.76,-24.15 -15.78,-15.94 -23.67,-34.4 -23.67,-55.39 0,-21.62 7.89,-40.24 23.67,-56.02 15.62,-15.62 34.87,-23.51 57.76,-23.51zm66.6 243.18l0 461.44c0,63.44 -14.68,114.73 -43.87,153.87 -29.35,39.13 -70.54,68.33 -123.56,87.43l-51.76 -102.57c32.67,-14.83 57.76,-32.67 75.43,-53.66 17.52,-20.99 26.35,-47.81 26.35,-80.48l0 -366.12 -74.96 0 0 -99.89 192.37 0zm356.02 -11.99c45.61,0 84.9,9.78 117.88,29.51 32.98,19.72 58.23,47.03 75.91,81.9 17.52,34.88 26.35,74.96 26.35,120.57l0 50.03 -338.5 0c6.15,31.4 21.62,56.65 46.24,75.75 24.62,19.25 54.92,28.72 90.58,28.72 33.93,0 64.7,-6.79 92.48,-20.36 27.78,-13.57 50.03,-27.46 66.6,-41.66l-0.95 109.2c-14.83,12.94 -36.77,26.04 -66.12,39.3 -29.19,13.26 -61.39,19.88 -96.58,19.88 -46.24,0 -88.37,-10.57 -126.25,-31.4 -37.87,-20.99 -68.17,-49.71 -90.58,-86.01 -22.57,-36.45 -33.77,-77.96 -33.77,-124.83 0,-45.61 10.1,-87.27 30.46,-124.83 20.36,-37.72 48.45,-68.02 84.27,-91.06 35.67,-23.2 76.38,-34.72 121.99,-34.72zm-2.84 102.57c-28.88,0 -53.18,9 -72.91,26.83 -19.72,17.83 -33.3,41.98 -40.71,72.12l223.77 0c-2.52,-33.3 -14.83,-58.07 -37.08,-74.49 -22.09,-16.25 -46.56,-24.46 -73.07,-24.46zm542.87 -102.57c34.4,0 62.81,5.52 85.06,16.57 22.09,11.2 39.77,21.93 52.71,32.35l0 108.26c-16.09,-11.68 -34.09,-21.62 -54.13,-29.67 -20.04,-7.89 -44.5,-12 -73.54,-12 -23.35,0 -45.13,5.84 -65.17,17.68 -20.04,11.68 -35.82,27.3 -47.66,47.03 -11.68,19.72 -17.52,42.29 -17.52,67.54 0,38.19 12.31,69.75 36.93,94.37 24.78,24.62 55.86,36.93 93.42,36.93 29.04,0 53.5,-3.79 73.54,-11.52 20.04,-7.73 38.04,-17.36 54.13,-29.2l0 107.31c-12.94,11.05 -30.61,21.78 -52.71,31.88 -22.25,10.26 -50.66,15.31 -85.06,15.31 -47.5,0 -89.64,-11.2 -126.25,-33.77 -36.77,-22.57 -65.65,-52.39 -86.95,-89.63 -21.3,-37.4 -31.88,-77.96 -31.88,-121.67 0,-32.67 6,-63.75 17.99,-93.42 11.99,-29.51 29.19,-55.87 51.29,-79.06 22.25,-23.04 48.29,-41.35 78.27,-54.92 29.83,-13.57 62.33,-20.36 97.53,-20.36zm411.41 -123.88l0 135.87 129.56 0 0 98 -129.56 0 0 201.52c0,20.99 4.89,37.56 14.36,49.56 9.63,11.99 23.98,17.99 43.08,17.99 16.57,0 30.93,-1.89 42.93,-5.52 11.99,-3.63 23.36,-9 33.77,-15.78l0 93.42c-11.68,11.68 -26.35,21.62 -43.87,29.67 -17.68,7.89 -39.61,11.99 -66.12,11.99 -41.98,0 -76.07,-13.41 -102.26,-40.24 -26.2,-26.83 -39.3,-63.6 -39.3,-110.47l0 -232.14 -84.11 0 0 -60.12c29.67,-10.42 56.81,-30.14 81.91,-59.18 24.93,-28.88 44.81,-67.23 59.49,-114.57l60.13 0zm466.96 123.88c45.61,0 87.27,10.89 124.83,32.82 37.56,21.78 68.02,51.45 91.06,88.69 23.2,37.4 34.72,79.06 34.72,125.3 0,46.24 -11.52,87.9 -34.72,124.83 -23.04,37.09 -53.5,66.44 -91.06,88.37 -37.56,21.94 -79.22,32.82 -124.83,32.82 -44.97,0 -86.48,-10.89 -124.35,-32.82 -37.88,-21.94 -68.33,-51.29 -91.06,-88.37 -22.88,-36.93 -34.24,-78.59 -34.24,-124.83 0,-46.24 11.36,-87.9 34.24,-125.3 22.72,-37.24 53.18,-66.91 91.06,-88.69 37.87,-21.93 79.38,-32.82 124.35,-32.82zm0 113.62c-22.25,0 -42.76,5.37 -62.02,15.78 -19.1,10.57 -34.25,25.56 -45.77,45.29 -11.36,19.72 -17.04,43.87 -17.04,72.12 0,28.41 5.68,52.39 17.04,72.12 11.52,19.73 26.67,34.72 45.77,44.82 19.25,10.26 39.77,15.31 62.02,15.31 22.25,0 42.93,-5.05 62.02,-15.31 19.09,-10.1 34.41,-25.09 46.24,-44.82 11.68,-19.72 17.52,-43.71 17.52,-72.12 0,-28.25 -5.84,-52.39 -17.52,-72.12 -11.83,-19.73 -27.15,-34.72 -46.24,-45.29 -19.09,-10.42 -39.77,-15.78 -62.02,-15.78zm478.95 -101.63l0 59.18c14.2,-17.83 31.25,-34.24 51.29,-49.08 20.04,-14.68 45.76,-22.09 77.33,-22.09 32.67,0 62.18,7.57 88.69,22.57 26.51,15.15 47.19,37.87 62.02,68.02 18.46,-25.25 40.08,-46.71 64.7,-64.23 24.62,-17.67 53.34,-26.35 86,-26.35 31.41,0 60.13,7.26 86.01,21.78 25.88,14.36 46.71,35.82 62.33,64.23 15.78,28.25 23.67,63.75 23.67,106.36l0 286.58 -117.41 0 -0.94 -270.96c0,-31.4 -8.2,-54.76 -24.62,-70.22 -16.26,-15.46 -37.72,-23.2 -64.23,-23.2 -20.36,0 -37.87,6.31 -52.71,18.94 -14.83,12.78 -28.56,27.61 -41.66,44.98l0 300.47 -117.41 0 -0.95 -270.96c0,-31.4 -8.05,-54.76 -24.46,-70.22 -16.26,-15.46 -37.4,-23.2 -63.28,-23.2 -19.73,0 -37.24,6 -52.71,18.15 -15.47,12 -29.35,26.04 -41.67,41.98l0 304.26 -117.41 0 0 -466.96 117.41 0zm940.39 -11.99c45.61,0 84.9,9.78 117.88,29.51 32.98,19.72 58.23,47.03 75.91,81.9 17.52,34.88 26.35,74.96 26.35,120.57l0 50.03 -338.5 0c6.15,31.4 21.62,56.65 46.24,75.75 24.62,19.25 54.92,28.72 90.58,28.72 33.93,0 64.7,-6.79 92.48,-20.36 27.78,-13.57 50.03,-27.46 66.6,-41.66l-0.95 109.2c-14.83,12.94 -36.77,26.04 -66.12,39.3 -29.19,13.26 -61.39,19.88 -96.58,19.88 -46.24,0 -88.37,-10.57 -126.25,-31.4 -37.87,-20.99 -68.17,-49.71 -90.58,-86.01 -22.57,-36.45 -33.77,-77.96 -33.77,-124.83 0,-45.61 10.1,-87.27 30.46,-124.83 20.36,-37.72 48.45,-68.02 84.27,-91.06 35.67,-23.2 76.38,-34.72 121.99,-34.72zm-2.84 102.57c-28.88,0 -53.18,9 -72.91,26.83 -19.72,17.83 -33.3,41.98 -40.71,72.12l223.77 0c-2.52,-33.3 -14.83,-58.07 -37.08,-74.49 -22.09,-16.25 -46.56,-24.46 -73.07,-24.46zm499.31 -226.46l0 135.87 129.56 0 0 98 -129.56 0 0 201.52c0,20.99 4.89,37.56 14.36,49.56 9.63,11.99 23.98,17.99 43.08,17.99 16.57,0 30.93,-1.89 42.93,-5.52 11.99,-3.63 23.36,-9 33.77,-15.78l0 93.42c-11.68,11.68 -26.35,21.62 -43.87,29.67 -17.68,7.89 -39.61,11.99 -66.12,11.99 -41.98,0 -76.07,-13.41 -102.26,-40.24 -26.2,-26.83 -39.3,-63.6 -39.3,-110.47l0 -232.14 -84.11 0 0 -60.12c29.67,-10.42 56.81,-30.14 81.91,-59.18 24.93,-28.88 44.81,-67.23 59.49,-114.57l60.13 0zm454.02 123.88c45.61,0 84.9,9.78 117.88,29.51 32.98,19.72 58.23,47.03 75.91,81.9 17.52,34.88 26.35,74.96 26.35,120.57l0 50.03 -338.5 0c6.15,31.4 21.62,56.65 46.24,75.75 24.62,19.25 54.92,28.72 90.58,28.72 33.93,0 64.7,-6.79 92.48,-20.36 27.78,-13.57 50.03,-27.46 66.6,-41.66l-0.95 109.2c-14.83,12.94 -36.77,26.04 -66.12,39.3 -29.19,13.26 -61.39,19.88 -96.58,19.88 -46.24,0 -88.37,-10.57 -126.25,-31.4 -37.87,-20.99 -68.17,-49.71 -90.58,-86.01 -22.57,-36.45 -33.77,-77.96 -33.77,-124.83 0,-45.61 10.1,-87.27 30.46,-124.83 20.36,-37.72 48.45,-68.02 84.27,-91.06 35.67,-23.2 76.38,-34.72 121.99,-34.72zm-2.84 102.57c-28.88,0 -53.18,9 -72.91,26.83 -19.72,17.83 -33.3,41.98 -40.71,72.12l223.77 0c-2.52,-33.3 -14.83,-58.07 -37.08,-74.49 -22.09,-16.25 -46.56,-24.46 -73.07,-24.46zm624.14 40.72c-19.72,-11.05 -40.4,-16.57 -61.86,-16.57 -27.14,0 -49.71,8.68 -67.54,26.35 -17.83,17.52 -33.61,39.3 -47.19,65.18l0 260.7 -117.41 0 0 -466.96 117.41 0 0 87.9c16.1,-27.78 35.04,-50.97 56.97,-69.44 21.78,-18.46 46.55,-27.78 74.33,-27.78 16.73,0 31.72,2.84 45.29,8.37l0 132.24z"/>
 </g>
</svg>
