<?xml version="1.0" encoding="UTF-8"?>
<!DOCTYPE svg PUBLIC "-//W3C//DTD SVG 1.1//EN" "http://www.w3.org/Graphics/SVG/1.1/DTD/svg11.dtd">
<!-- Creator: CorelDRAW 2018 (64-Bit Evaluation Version) -->
<svg xmlns="http://www.w3.org/2000/svg" xml:space="preserve" width="11.6929in" height="8.26772in" version="1.1" style="shape-rendering:geometricPrecision; text-rendering:geometricPrecision; image-rendering:optimizeQuality; fill-rule:evenodd; clip-rule:evenodd"
viewBox="0 0 11692.91 8267.72"
 xmlns:xlink="http://www.w3.org/1999/xlink">
 <defs>
  <style type="text/css">
   <![CDATA[
    .fil0 {fill:white}
   ]]>
  </style>
 </defs>
 <g id="Layer_x0020_1">
  <metadata id="CorelCorpID_0Corel-Layer"/>
  <path class="fil0" d="M5021.53 3481.72l615.81 4.62c0,0 6.94,173.64 94.9,294.02 87.96,120.38 335.7,356.51 335.7,356.51 83.04,-76.58 173.5,-145.96 249.13,-229.74 59.68,-66.09 169.37,-217.94 176.82,-311.97 4.6,-57.79 4.65,-108.82 4.65,-108.82l590.33 0c0,0 23.17,231.51 -60.18,395.88 -83.34,164.37 -90.3,212.96 -187.54,324.1 -97.24,111.13 -361.13,335.68 -361.13,335.68l294.65 313.39 41.86 0.2c0,0 165.91,-269.59 399.69,-429.34 105.41,-72.01 224.82,-136.24 344.45,-164.22 145.7,-34.1 282.91,-23.49 282.91,-20.98l0 588.04c0,0 -136.61,-4.6 -215.3,50.93 -32.93,23.26 -109.26,76.73 -184.08,152.54 -103.85,105.19 -207.15,236.38 -207.15,236.38l0 46.31c0,0 215.3,236.11 328.74,312.51 113.44,76.41 185.2,113.42 240.75,118.07 55.56,4.65 83.34,2.31 83.34,2.31l-2.31 615.81 -131.96 2.31c0,0 -196.78,-4.65 -439.87,-175.96 -243.09,-171.31 -435.2,-386.59 -435.2,-386.59 0,0 -263.92,300.96 -430.61,407.44 -71.04,45.39 -201.68,115.01 -317.63,140.51 -150.65,33.11 -284.28,12.28 -284.28,12.28l-3.58 -604.99c0,0 37.28,3.7 88.02,-0.43 45.54,-3.68 100.64,-12.4 172.52,-58.98 151.97,-98.48 340.33,-321.81 340.33,-321.81l-467.64 -479.2 -265.98 231.26c0,0 -59.23,59.8 -91.62,129.25 -32.39,69.45 -47.23,137.13 -47.23,137.13l-0.59 131.29 -588.3 -0.55c0,0 -0.52,-43.55 0.5,-112.2 1.56,-105.98 25.45,-242.77 95.27,-393.2 116.57,-251.17 474.28,-535.07 474.28,-535.07 0,0 -218.39,-193.26 -363.47,-416.71 -58.66,-90.35 -123.04,-236.6 -146.52,-361.88 -22.77,-121.3 -22.47,-225 -22.47,-226.14zm2597.98 -301.31c-202.73,-335.7 -471.45,-603.16 -781.91,-769.92 -277.3,-148.94 -564.85,-244.24 -1006.49,-245.88 -936.61,-3.48 -1876.02,856.17 -1853.99,1805.17 22.03,949 678.19,1647.96 1564.64,1783.45 0.1,2.93 5.46,625.17 -1.06,624.52 -1136,-113.19 -2042.05,-1073.18 -2042.05,-2238.99 0,-1241.98 1006.83,-2248.82 2248.82,-2248.82 884.44,0 1649.5,510.67 2016.76,1253.16l-144.73 37.3zm-1691.65 -897.9c74.4,0 147.76,4.25 219.85,12.43l-2.61 65.78c-47.64,-3.85 -75.91,-5.85 -144.53,-5.85 -68.62,0 -167.11,2.33 -251.83,14.84l-7.76 -78.25c61.41,-5.92 123.75,-8.96 186.87,-8.96zm406.05 42.89c127.9,27.46 250.69,67.62 366.79,118.94l-21.41 45.77c-113.19,-47.39 -232.97,-83.33 -357.7,-106.19l12.32 -58.53zm523.34 199.14c112.27,59.45 224.93,141.14 320.79,220.78l-31.72 35.48c-95.3,-78.89 -195.74,-157.04 -308.47,-214.11l19.4 -42.15zm443.2 344.46c122.77,117.88 171.62,187.95 253.97,335.05l-46.48 16.2c-76.82,-140.65 -124.15,-208.87 -240.86,-320.91l33.37 -30.33zm-1718.58 -464.15c-125.06,30.52 -240.15,68.13 -351.7,123.64l-46.1 -95.93c121.15,-51.56 241.2,-90.89 375.09,-116.33l22.71 88.62zm-516.37 221.13c-101.21,65.19 -194.24,140.67 -277.34,224.87l-98.52 -105.78c94.6,-84.28 199.06,-158.96 311.59,-222.43l64.28 103.34zm-415.14 384.49c-75.69,100.69 -138.82,210.25 -187.3,326.72l-167.64 -76.11c61.24,-124.79 138.35,-241.29 228.87,-347.3l126.07 96.7zm-261.55 557.42c-25.46,109.45 -38.65,223.22 -37.94,340.04 0.06,9.05 0.2,18.08 0.42,27.09l-218.64 -17.52c4.01,-140.37 26.37,-276.4 64.84,-406.1l191.32 56.5zm-16.78 580.11c23.94,139.29 67.63,272.45 128.28,396.9l-215.91 100.45c-70.06,-149.19 -117.86,-309.55 -139.45,-477.39l227.09 -19.96zm231.88 577.16c72.71,108.75 159.3,208.56 257.44,297.24 -30.01,57.48 -52.54,127.72 -63.28,205.04 -2.21,15.91 -3.85,31.68 -4.95,47.24 -152.41,-117.87 -284,-258.55 -388.78,-416.38l199.57 -133.14z"/>
 </g>
</svg>
